<svg enable-background="new 0 0 600 600" height="600" viewBox="0 0 600 600" width="600" xmlns="http://www.w3.org/2000/svg"><g fill="#ddd"><path d="m269 500.2-.3-.1-243.3-85.8.2-.5 87.8-241.2.5.5 124.7 110.3 102.9-63.3-35.7-118.7 227 39.8-.4.6-83.7 127.2 127.5 58.2-103.6 149.5-.4-.3-111.1-89.7zm-242.4-86.5 242 85.4 92.3-113.8.4.3 111.1 89.7 102.4-147.6-127.5-58.2 83.9-127.6-224-39.2 35.4 117.9-.3.2-103.9 63.9-.3-.2-124.5-110z"/><path d="m269.3 499.7-1-.1 22.1-171.7-52-43.3-212.1 128.8-.5-.9 212.8-129.2 52.1 43.4 51.1-107.5.5.2 106.5 49.5-37.3 56.2-50.3 61.4-.4-.3-69.3-57.7zm22.2-172.2 69.4 57.8 49.7-60.6 36.6-55.2-105-48.8-50.7 106.7z"/><path d="m472 476.2-60.4-150.5-71-105.4.8-.6 71 105.6h.1l60.5 150.5z"/><path d="m492.7 243.7h1v164.5h-1z" transform="matrix(.01215716 -.9999 .9999 .01215716 161.2776 815.2503)"/><circle cx="307.6" cy="102.8" r="2.5"/><circle cx="531" cy="142" r="2.5"/><circle cx="113.5" cy="174.6" r="2.5"/><circle cx="472.2" cy="475" r="2.5"/><circle cx="574.5" cy="327.5" r="2.5"/><circle cx="268.5" cy="499" r="2.5"/><circle cx="26.5" cy="413" r="2.5"/><circle cx="342" cy="220.3" r="2.5"/><circle cx="411.6" cy="324.7" r="2.5"/><circle cx="291.1" cy="327.2" r="2.5"/></g></svg>